PathFileType	4	(X/Y/Z)	/tmp/tmpjnq7zxqp/Me/MarkerData/jogging02_segment_0.trc
DataRate	CameraRate	NumFrames	NumMarkers	Units	OrigDataRate	OrigDataStartFrame	OrigNumFrames
100.093	100.093	8	39	m	100.093	0	1074
Frame#	Time	C7			CLAV			LANK			LASI			LBHD			LELB			LFHD			LFIN			LFRM			LHEE			LKNE			LPSI			LSHO			LTHI			LTIB			LTOE			LUPA			LWRA			LWRB			RANK			RASI			RBAK			RBHD			RELB			RFHD			RFIN			RFRM			RHEE			RKNE			RPSI			RSHO			RTHI			RTIB			RTOE			RUPA			RWRA			RWRB			STRN			T10		
		X1	Y1	Z1	X2	Y2	Z2	X3	Y3	Z3	X4	Y4	Z4	X5	Y5	Z5	X6	Y6	Z6	X7	Y7	Z7	X8	Y8	Z8	X9	Y9	Z9	X10	Y10	Z10	X11	Y11	Z11	X12	Y12	Z12	X13	Y13	Z13	X14	Y14	Z14	X15	Y15	Z15	X16	Y16	Z16	X17	Y17	Z17	X18	Y18	Z18	X19	Y19	Z19	X20	Y20	Z20	X21	Y21	Z21	X22	Y22	Z22	X23	Y23	Z23	X24	Y24	Z24	X25	Y25	Z25	X26	Y26	Z26	X27	Y27	Z27	X28	Y28	Z28	X29	Y29	Z29	X30	Y30	Z30	X31	Y31	Z31	X32	Y32	Z32	X33	Y33	Z33	X34	Y34	Z34	X35	Y35	Z35	X36	Y36	Z36	X37	Y37	Z37	X38	Y38	Z38	X39	Y39	Z39

1	0	-0.0370988	1.42349	-0.0413508	-0.198355	1.33597	-0.00560675	-0.147822	0.0893049	0.069791	-0.0932863	0.955952	0.130048	-0.166103	1.56429	0.071715	0.0729994	1.10271	0.23905	-0.296668	1.54967	0.0631227	-0.225819	1.026	0.14468	-0.037305	1.01501	0.17332	-0.0731294	0.061034	0.0228907	-0.273642	0.468662	0.109258	0.036593	0.953373	-0.00603106	-0.0627819	1.3982	0.140986	-0.204176	0.644869	0.149823	-0.192476	0.228362	0.106189	-0.312348	0.0651756	-0.00505321	-0.00719274	1.25684	0.233303	-0.12698	1.0606	0.121721	-0.124576	0.995175	0.148324	0.25243	0.280942	-0.148067	-0.123275	0.932292	-0.18717	-0.0117437	1.28946	-0.176537	-0.170127	1.5735	-0.0780124	-0.197518	1.09104	-0.299074	-0.292343	1.55172	-0.0666979	-0.394705	1.07621	-0.0242763	-0.246571	1.04962	-0.240792	0.301125	0.338289	-0.0781414	-0.132401	0.43051	-0.171812	0.0252849	0.951487	-0.0690268	-0.147001	1.41071	-0.194247	-0.156743	0.763685	-0.201605	-0.00368026	0.396441	-0.19345	0.241967	0.11374	-0.105174	-0.189725	1.18032	-0.282702	-0.295855	1.07953	-0.0873553	-0.342843	1.02651	-0.104816	-0.227747	1.17686	0.0112344	0.0188897	1.1909	-0.0599605
2	0.00999069	-0.036748	1.41741	-0.0381533	-0.197442	1.32994	-0.00645899	-0.128864	0.0896474	0.0698446	-0.0880276	0.949949	0.130516	-0.165779	1.55754	0.0732433	0.0601264	1.08426	0.241032	-0.296283	1.54325	0.0635519	-0.2372	1.02047	0.137753	-0.0502425	1.00229	0.170807	-0.0537091	0.0615564	0.0229436	-0.27199	0.463784	0.113368	0.0404533	0.94331	-0.011074	-0.061572	1.38841	0.145871	-0.203326	0.64215	0.150987	-0.180517	0.226854	0.107122	-0.293085	0.0646845	-0.00525829	-0.0147378	1.24104	0.236274	-0.136778	1.05232	0.117847	-0.137337	0.986118	0.143547	0.240093	0.283281	-0.148251	-0.120359	0.924503	-0.188578	-0.00486663	1.28292	-0.172673	-0.168537	1.56711	-0.0764589	-0.184446	1.08102	-0.301387	-0.290859	1.54558	-0.0661996	-0.388353	1.05269	-0.0337608	-0.232731	1.03717	-0.245193	0.290699	0.340094	-0.078923	-0.146586	0.426792	-0.170765	0.0299763	0.940273	-0.0753612	-0.143716	1.40298	-0.195225	-0.159242	0.760014	-0.200583	-0.0181784	0.39232	-0.192476	0.230092	0.115847	-0.10573	-0.179438	1.17152	-0.284018	-0.287808	1.06088	-0.0930996	-0.332159	1.00681	-0.113298	-0.225551	1.16655	0.0100909	0.0203475	1.17962	-0.058117
3	0.0199814	-0.0375213	1.41314	-0.0355412	-0.195563	1.32399	-0.00694252	-0.109728	0.0899954	0.0692326	-0.0834568	0.944771	0.130882	-0.165283	1.55103	0.0745144	0.0461335	1.06744	0.242971	-0.295764	1.53727	0.0638137	-0.249097	1.01705	0.130193	-0.0643327	0.991519	0.168059	-0.034177	0.0622094	0.0227761	-0.267988	0.457886	0.116634	0.0434674	0.936039	-0.0140518	-0.0618436	1.38002	0.149768	-0.201457	0.638072	0.152349	-0.167822	0.224298	0.107406	-0.273737	0.0641391	-0.00574573	-0.0230093	1.22672	0.238444	-0.147043	1.04552	0.113423	-0.150872	0.97877	0.137921	0.226822	0.284664	-0.148469	-0.118344	0.918289	-0.189635	0.000996155	1.27826	-0.16894	-0.166779	1.56093	-0.0751474	-0.170122	1.07253	-0.303841	-0.289324	1.5399	-0.0658925	-0.380802	1.03089	-0.0441324	-0.2181	1.02577	-0.249992	0.279485	0.340724	-0.0797919	-0.160838	0.422875	-0.169696	0.034065	0.931776	-0.0787442	-0.141389	1.39562	-0.195384	-0.16118	0.755465	-0.200169	-0.0329907	0.388584	-0.191485	0.216071	0.117267	-0.10624	-0.168178	1.16345	-0.285739	-0.278363	1.04375	-0.0991558	-0.320402	0.988654	-0.122384	-0.22324	1.15833	0.00823276	0.0221465	1.17214	-0.0553767
4	0.0299721	-0.0383491	1.40997	-0.033406	-0.193204	1.31788	-0.00708086	-0.0903625	0.0904816	0.0685423	-0.0797765	0.940345	0.131092	-0.164625	1.54503	0.0755538	0.0308744	1.05266	0.24458	-0.295123	1.53194	0.063893	-0.261358	1.016	0.122094	-0.0795993	0.98258	0.165301	-0.0144588	0.0627499	0.0223547	-0.261913	0.451159	0.1187	0.0462556	0.9315	-0.0153276	-0.0633006	1.37321	0.152096	-0.197772	0.632506	0.153288	-0.154586	0.220955	0.107152	-0.254196	0.0635238	-0.00615174	-0.0318129	1.21409	0.239602	-0.157824	1.0406	0.108667	-0.165108	0.973527	0.131575	0.212719	0.285112	-0.148676	-0.116525	0.91347	-0.190102	0.00526944	1.27471	-0.165864	-0.164997	1.55519	-0.0741356	-0.154525	1.06565	-0.306564	-0.287752	1.53482	-0.0657252	-0.372192	1.01099	-0.0553717	-0.202388	1.01569	-0.255043	0.267423	0.34019	-0.0805174	-0.175057	0.419529	-0.168569	0.0371125	0.925799	-0.0792607	-0.139558	1.38893	-0.19512	-0.162319	0.750925	-0.200255	-0.0479777	0.385579	-0.190491	0.200045	0.117904	-0.106797	-0.15606	1.15638	-0.287649	-0.268232	1.02828	-0.106004	-0.307593	0.972343	-0.131945	-0.220917	1.15194	0.00591512	0.0245397	1.16873	-0.0516405
5	0.0399628	-0.0376835	1.40682	-0.0317199	-0.191166	1.31215	-0.00707896	-0.0709598	0.0909566	0.067955	-0.0769477	0.936762	0.130629	-0.163898	1.53993	0.0764318	0.0146117	1.04012	0.245758	-0.294374	1.52746	0.0638113	-0.273803	1.01755	0.11347	-0.0957787	0.975691	0.162308	0.00528571	0.0632489	0.0219338	-0.254001	0.443588	0.119497	0.048999	0.929243	-0.0158675	-0.0651924	1.36775	0.152794	-0.19177	0.625411	0.153643	-0.140504	0.217304	0.106603	-0.234573	0.0631024	-0.00633195	-0.0409253	1.20348	0.239978	-0.168899	1.03788	0.10359	-0.17998	0.970781	0.125217	0.197985	0.284631	-0.148859	-0.113738	0.910524	-0.189798	0.0086221	1.27157	-0.163838	-0.163289	1.55027	-0.0734307	-0.13779	1.06032	-0.309543	-0.286224	1.53052	-0.0657178	-0.362277	0.993481	-0.0671308	-0.185518	1.0074	-0.26006	0.254837	0.338262	-0.0810338	-0.189144	0.417799	-0.167423	0.0395278	0.922351	-0.0788408	-0.137453	1.38328	-0.194899	-0.162546	0.74737	-0.200526	-0.0630383	0.383881	-0.189533	0.182229	0.117627	-0.107445	-0.143079	1.15081	-0.28969	-0.257232	1.01508	-0.11342	-0.293649	0.958312	-0.141785	-0.218451	1.1469	0.0033669	0.0271833	1.16823	-0.0471439
6	0.0499534	-0.0350788	1.40303	-0.0306603	-0.190053	1.30794	-0.00726559	-0.0515033	0.0914957	0.0676148	-0.0747901	0.934002	0.129734	-0.163137	1.53597	0.0771002	-0.00201089	1.02962	0.246617	-0.293577	1.52397	0.0635341	-0.285998	1.02196	0.104381	-0.112472	0.971087	0.158803	0.0250172	0.0637898	0.021649	-0.245145	0.435883	0.11929	0.0514068	0.928401	-0.0158487	-0.0662453	1.3633	0.153046	-0.184175	0.618119	0.153601	-0.125482	0.213923	0.106072	-0.214923	0.0628414	-0.00642653	-0.0501599	1.19507	0.239679	-0.180117	1.03747	0.098249	-0.195133	0.970704	0.118759	0.182773	0.283103	-0.148896	-0.110926	0.908702	-0.189548	0.0118586	1.26886	-0.162373	-0.161661	1.54643	-0.0729826	-0.120217	1.05673	-0.312524	-0.284703	1.5271	-0.0659262	-0.351169	0.978575	-0.0791923	-0.167639	1.00133	-0.264878	0.241845	0.334843	-0.0811958	-0.202857	0.418114	-0.166324	0.0420718	0.920833	-0.0785166	-0.134554	1.37894	-0.194996	-0.162125	0.745407	-0.200773	-0.0778744	0.383648	-0.188504	0.162728	0.11647	-0.108225	-0.129169	1.14715	-0.291862	-0.245411	1.00445	-0.121204	-0.278671	0.946859	-0.151699	-0.215751	1.14296	0.000697328	0.0297415	1.16885	-0.0424023
7	0.0599441	-0.0315818	1.39913	-0.0303091	-0.189298	1.30498	-0.00779081	-0.0319955	0.0920193	0.0675442	-0.0732122	0.931763	0.12933	-0.16234	1.53326	0.0772161	-0.0189919	1.02105	0.247089	-0.292734	1.52147	0.0629956	-0.297689	1.02919	0.0950405	-0.129134	0.969158	0.154798	0.0446757	0.0643434	0.0215146	-0.236059	0.429194	0.118432	0.0532447	0.928069	-0.0150189	-0.0659946	1.35991	0.153993	-0.17623	0.612375	0.153285	-0.109917	0.211312	0.105659	-0.195245	0.0626746	-0.00646939	-0.0592219	1.18903	0.239046	-0.191382	1.03939	0.0928242	-0.210168	0.973326	0.112033	0.16722	0.280516	-0.148699	-0.108081	0.907914	-0.189534	0.0157606	1.26712	-0.160758	-0.160025	1.5438	-0.0727649	-0.102204	1.05534	-0.315298	-0.283105	1.52465	-0.0664129	-0.339218	0.966245	-0.0914912	-0.149346	0.997604	-0.26982	0.228621	0.329815	-0.0810026	-0.215973	0.420488	-0.165387	0.0445093	0.920046	-0.0777104	-0.130762	1.37609	-0.195367	-0.161637	0.744802	-0.20108	-0.0922998	0.384784	-0.187501	0.141589	0.114695	-0.109184	-0.114488	1.14553	-0.294191	-0.233006	0.996348	-0.129273	-0.26283	0.938037	-0.161437	-0.213353	1.14027	-0.00183152	0.0317238	1.16928	-0.0379091
8	0.0699348	-0.0282962	1.39669	-0.0304031	-0.188194	1.30328	-0.00866234	-0.0127332	0.0923481	0.0673144	-0.0719544	0.929936	0.129367	-0.161587	1.53182	0.0771992	-0.0362061	1.01486	0.246893	-0.291895	1.52003	0.0621379	-0.308625	1.0391	0.0855727	-0.145558	0.969937	0.150407	0.0642588	0.0649646	0.0215455	-0.226216	0.424354	0.117504	0.0545972	0.927677	-0.0137001	-0.0648608	1.35754	0.155072	-0.168447	0.609019	0.152814	-0.094207	0.209607	0.105386	-0.175551	0.0625617	-0.00649096	-0.0678536	1.18537	0.238498	-0.202103	1.04375	0.0872994	-0.224754	0.978566	0.104991	0.151362	0.276846	-0.148248	-0.105291	0.907725	-0.189895	0.0203919	1.26645	-0.158597	-0.158346	1.54242	-0.0727605	-0.0842803	1.05634	-0.317862	-0.281455	1.52327	-0.0671791	-0.326506	0.956616	-0.10381	-0.131109	0.996344	-0.274614	0.215288	0.32308	-0.0805538	-0.228445	0.424645	-0.164588	0.0464763	0.919389	-0.076435	-0.126276	1.37478	-0.19579	-0.161492	0.745392	-0.201554	-0.106152	0.387007	-0.186638	0.118922	0.112184	-0.109967	-0.0996269	1.14597	-0.296399	-0.220061	0.990638	-0.137357	-0.246137	0.931743	-0.170757	-0.211185	1.13923	-0.00393352	0.033438	1.16912	-0.034171
